PathFileType	4	(X/Y/Z)	Patient4_TMGait_0pt5_01_left_02.trc.trc
DataRate	CameraRate	NumFrames	NumMarkers	Units	OrigDataRate	OrigDataStartFrame	OrigNumFrames
76.086956521739	76.086956521739	4	33	mm	76.086956521739	71	       141
Frame#	Time	L.ASIS			Sacral			L.Shoulder			Chest			R.Shoulder			Neck			R.ASIS			R.Thigh.Superior			R.Thigh.Lateral			R.Thigh.Inferior			R.Patella			L.Thigh.Superior			L.Thigh.Lateral			L.Thigh.Inferior			L.Patella			L.Shank.Superior			L.Shank.Lateral			L.Shank.Inferior			R.Shank.Superior			R.Shank.Lateral			R.Shank.Inferior			R.Heel			R.Midfoot.Superior			R.Midfoot.Lateral			R.Toe			L.Heel			L.Midfoot.Lateral			L.Midfoot.Superior			L.Toe			L.Elbow			L.Wrist			R.Elbow			R.Wrist			
		X1	Y1	Z1	X2	Y2	Z2	X3	Y3	Z3	X4	Y4	Z4	X5	Y5	Z5	X6	Y6	Z6	X7	Y7	Z7	X8	Y8	Z8	X9	Y9	Z9	X10	Y10	Z10	X11	Y11	Z11	X12	Y12	Z12	X13	Y13	Z13	X14	Y14	Z14	X15	Y15	Z15	X16	Y16	Z16	X17	Y17	Z17	X18	Y18	Z18	X19	Y19	Z19	X20	Y20	Z20	X21	Y21	Z21	X22	Y22	Z22	X23	Y23	Z23	X24	Y24	Z24	X25	Y25	Z25	X26	Y26	Z26	X27	Y27	Z27	X28	Y28	Z28	X29	Y29	Z29	X30	Y30	Z30	X31	Y31	Z31	X32	Y32	Z32	X33	Y33	Z33	

71	3.440000000000	783.536014446036	958.512777668608	308.591890248459	553.833522591711	1008.896298933449	439.479983159637	761.811048133624	1436.875680651324	280.704523301540	837.299528729493	1363.865387276405	455.193707833240	728.983877074184	1438.710949847820	615.398644959845	741.887426832254	1496.949210146302	429.907258898533	768.860014478423	946.148291464785	583.008576418996	841.918544263639	768.191822227232	559.015524162336	791.292456443140	650.780982985140	630.605975887177	878.395873283868	607.447208512374	551.812845196554	909.691119638761	523.660627267088	570.046205783784	795.297408215078	734.003299425986	344.411849570195	692.959850473282	633.379453311921	274.715966172969	749.469591305834	545.141170932043	349.025722270806	735.374622831332	477.943780847102	360.070284674972	706.514857254675	409.691480031449	349.708012901297	614.073349642829	301.180501826383	294.174830943397	646.806554116480	189.018992213329	372.050523709607	890.727856973891	436.246748957935	579.979292196879	835.027140890475	325.763764101190	645.888184320026	899.227319581160	236.250291842853	594.106988904702	798.937241476078	49.879410877395	569.391010225174	960.639988760725	124.681206380090	606.096911274488	883.981299954163	48.628551782528	642.736278160867	1086.124511947845	89.861843973320	633.858156157357	505.875213210177	38.338243413382	407.236001210253	582.930647835437	35.194355321473	329.576374244608	665.968494647307	95.135401581621	359.987278892153	794.796655184881	41.416868570959	336.214751565107	803.592864108302	1100.206212589588	132.404133075764	1049.053689984978	1028.840836265339	163.310451835266	568.508308289666	1130.368685497813	706.956899592322	516.571350014720	875.928792798616	722.848917400761	
72	3.453142857143	784.870019868117	957.686554695356	310.702140228149	554.676629717780	1007.725918854128	440.743858447967	761.970116672512	1435.977747659474	282.582788681032	837.131544603086	1363.277285700147	457.318141445808	728.239308287301	1437.989520557222	617.122280324684	741.489679061822	1496.080934857305	431.663367438108	769.253208051099	944.974507919832	585.115548273690	840.718020725668	765.477106083289	561.713725148166	787.960234860496	648.143525043934	632.153533121351	875.177135369653	604.691677614814	553.713613996548	905.691418460886	522.180429233585	570.767351137665	794.188749745922	732.477936169544	346.104549143881	690.751142658978	632.993786277722	275.654091694616	745.837714416254	544.111954363007	349.935403465330	731.026505142321	477.124786916569	360.740289653192	701.820645105134	409.095940007792	350.263076346909	608.813564539240	301.180054830066	294.504818899309	640.753323953973	188.728554486990	372.273658553337	889.069676744930	434.723318743953	580.633757041867	835.924362354874	322.524822367774	645.771573891776	902.829979503213	234.903485102703	593.832373182902	807.404435950333	46.300084508203	568.316357189193	967.560128137725	124.589071827961	605.332146884967	892.519444005343	46.693569460943	641.609459957525	1093.842322233908	92.331404459587	632.693550011079	499.267969213977	38.398810308267	407.233432589071	576.296534962844	35.208529743576	329.606984571352	659.349758827557	95.104180124613	360.049023460551	788.120415651766	41.346334041861	336.264437518549	806.101778990507	1099.499275209892	134.923930223924	1052.643153651787	1033.039178870499	166.607362130772	567.008239126304	1129.956797916296	707.487728674051	515.463379903729	875.243777428910	722.472686940843	
73	3.466285714286	786.337307916325	956.770131043759	312.899392519680	555.756728887253	1006.349199787079	442.309785402965	762.002396875308	1434.954488658846	284.614180564769	836.988518890814	1362.614147798906	459.555690131210	727.570923457789	1437.106553571925	619.032873778330	741.023953160838	1495.080154346529	433.592512708815	769.936918880633	943.641443777201	587.302712843261	840.114840132502	762.872976239297	564.379608417088	785.221225267322	645.461373043060	633.431515518360	872.730178343134	602.095013041577	555.500682360871	902.194499726088	520.443115942290	571.370305565713	793.297946577538	730.885453368012	347.772060638828	688.677644838936	632.534505705826	276.727020005654	742.457227202898	543.012218031547	350.892667664368	726.937986550868	476.171747256132	361.503477251251	697.328970184923	408.399180100907	350.899410683907	603.652653956830	301.170118133572	294.894705810368	634.760036874649	188.392390369932	372.510908797397	887.329821796999	432.808232259478	581.138194611957	835.709894404874	319.409597405634	645.296610802918	904.596291753431	233.246162075416	593.322851205036	812.417186156177	43.751399137153	566.904048994106	971.675512747770	123.761655338146	604.354003409785	897.443002454120	45.047309143993	640.252048821035	1098.222357739390	92.801532626951	631.440650443251	492.652411365945	38.420946459313	407.234054334182	569.657603012210	35.217184962849	329.643665844268	652.709865715334	95.078859969990	360.119447176695	781.432037030197	41.264554179987	336.307806440830	808.302595462084	1098.631025676620	137.579320439370	1055.689812254672	1036.453493936000	170.055004859151	566.313385822386	1128.948471236751	708.346954809954	515.966991171655	873.801726346397	722.304753763750	
74	3.479428571429	787.886376544938	955.757170210504	315.156335689554	557.053833749410	1004.780790786568	444.170303039779	761.915550863931	1433.814665929174	286.805656151227	836.880160867280	1361.872586549217	461.908427445122	726.986280437119	1436.056422381145	621.141243021131	740.512038838236	1493.953785222836	435.705975204390	770.903883424008	942.167282460755	589.547825673857	840.145122991849	760.420611233801	566.968831247689	783.140832076879	642.802492063491	634.450311314906	871.119122606167	599.705809478301	557.176358223546	899.299728107764	518.498162118500	571.883208698620	792.656129083713	729.239953966157	349.397167066444	686.787955060196	631.988420302559	277.945590835173	739.409574070841	541.834088701249	351.917101352852	723.207832488361	475.053189289857	362.385658393178	693.111405118235	407.572522171898	351.642868510237	598.636011782254	301.147135108647	295.360116151645	628.842930252069	187.999451180049	372.774138618908	885.642428808086	430.555874126520	581.524920390031	834.600921605961	316.409935655427	644.586757475823	904.755171274970	231.238078171510	592.655084806271	814.201484800216	42.055417641779	565.311664991707	973.253443880347	122.134093730542	603.235594742133	899.035638789694	43.567417503628	638.799128642696	1099.620285612253	91.259338226232	630.146834205854	486.023368300318	38.401940680507	407.231738731272	563.015994674132	35.218313218430	329.685363192820	646.051408013322	95.063169150947	360.199120159377	774.740597856860	41.168305786127	336.341309281299	810.177441812670	1097.595377255763	140.359564189544	1058.204343836055	1039.050722640751	173.642674787914	566.395532674769	1127.353683211726	709.556036517259	518.040686347976	871.626873520884	722.402593933359	
